<svg width="13" height="13" viewBox="0 0 13 13" fill="none" xmlns="http://www.w3.org/2000/svg">
<path d="M5.57067 6.97369L4.37333 5.78035C4.31111 5.71813 4.23533 5.6848 4.146 5.68035C4.05622 5.67591 3.97467 5.71058 3.90133 5.78435C3.83022 5.85547 3.79467 5.93413 3.79467 6.02035C3.79467 6.10658 3.83022 6.18524 3.90133 6.25635L5.19333 7.54835C5.30133 7.65591 5.42711 7.70969 5.57067 7.70969C5.71422 7.70969 5.84 7.65591 5.948 7.54835L8.64 4.85635C8.70489 4.79147 8.73889 4.71502 8.742 4.62702C8.74511 4.53858 8.71111 4.45769 8.64 4.38435C8.56667 4.31102 8.48733 4.27369 8.402 4.27235C8.31667 4.27102 8.23756 4.30702 8.16467 4.38035L5.57067 6.97369ZM4.05067 11.7644L3.17333 10.2977L1.51933 9.94835C1.38689 9.92391 1.28133 9.8528 1.20267 9.73502C1.124 9.61769 1.09156 9.4928 1.10533 9.36035L1.26333 7.65635L0.141333 6.37635C0.047111 6.27991 0 6.16124 0 6.02035C0 5.87947 0.047111 5.7608 0.141333 5.66435L1.26333 4.38435L1.10533 2.68102C1.092 2.54813 1.12444 2.42302 1.20267 2.30569C1.28133 2.18835 1.38689 2.11724 1.51933 2.09235L3.17267 1.74369L4.05 0.277021C4.122 0.15791 4.21867 0.0756881 4.34 0.0303548C4.46133 -0.015423 4.58689 -0.009423 4.71667 0.0483548L6.27067 0.705021L7.824 0.0483548C7.95422 -0.009423 8.08 -0.015423 8.20133 0.0303548C8.32267 0.0756881 8.41933 0.15791 8.49133 0.277021L9.368 1.74369L11.022 2.09235C11.1544 2.11724 11.26 2.18835 11.3387 2.30569C11.4173 2.42302 11.4498 2.54813 11.436 2.68102L11.2787 4.38435L12.4 5.66435C12.4942 5.7608 12.5413 5.87947 12.5413 6.02035C12.5413 6.16124 12.4942 6.28013 12.4 6.37702L11.2787 7.65635L11.436 9.35969C11.4493 9.49258 11.4169 9.61769 11.3387 9.73502C11.26 9.8528 11.1544 9.92391 11.022 9.94835L9.36867 10.2977L8.49133 11.7644C8.41933 11.883 8.32267 11.9652 8.20133 12.011C8.08 12.0568 7.95444 12.0506 7.82467 11.9924L6.27067 11.3357L4.71733 11.9924C4.58711 12.0501 4.46133 12.0561 4.34 12.0104C4.21867 11.965 4.122 11.8828 4.05 11.7637" fill="#07B007"/>
</svg>
