<svg width="10" height="10" viewBox="0 0 10 10" fill="none" xmlns="http://www.w3.org/2000/svg">
<path d="M7.85212 8.79492L5.49509 6.4379L3.13807 8.79492C3.01305 8.91995 2.84348 8.99019 2.66667 8.99019C2.48986 8.99019 2.32029 8.91995 2.19526 8.79492C2.07024 8.6699 2 8.50033 2 8.32352C2 8.14671 2.07024 7.97714 2.19526 7.85212L4.55228 5.49509L2.19526 3.13807C2.07024 3.01305 2 2.84348 2 2.66667C2 2.48986 2.07024 2.32029 2.19526 2.19526C2.32029 2.07024 2.48986 2 2.66667 2C2.84348 2 3.01305 2.07024 3.13807 2.19526L5.49509 4.55228L7.85212 2.19526C7.97714 2.07024 8.14671 2 8.32352 2C8.50033 2 8.6699 2.07024 8.79492 2.19526C8.91995 2.32029 8.99019 2.48986 8.99019 2.66667C8.99019 2.84348 8.91995 3.01305 8.79492 3.13807L6.4379 5.49509L8.79492 7.85212C8.91995 7.97714 8.99019 8.14671 8.99019 8.32352C8.99019 8.50033 8.91995 8.6699 8.79492 8.79492C8.6699 8.91995 8.50033 8.99019 8.32352 8.99019C8.14671 8.99019 7.97714 8.91995 7.85212 8.79492Z" fill="#EF4444"/>
</svg>