<svg width="17" height="20" viewBox="0 0 17 20" fill="none" xmlns="http://www.w3.org/2000/svg">
<path d="M8.24978 7.59668e-07C10.4456 5.81444e-05 12.5545 0.86165 14.1098 2.39714C15.5184 3.7881 16.2523 5.34384 16.4464 6.95899C16.639 8.56174 16.2938 10.17 15.6371 11.6771C14.3307 14.6756 11.7351 17.4031 9.24652 19.1784L9.24717 19.179C8.95653 19.3878 8.60761 19.5 8.24978 19.5C7.89271 19.5 7.54463 19.3882 7.25433 19.1803C4.76497 17.406 2.16857 14.6778 0.861757 11.6784C0.205111 10.1712 -0.139418 8.56309 0.0531627 6.96029C0.247241 5.34503 0.981065 3.78945 2.38975 2.39844L2.3904 2.39714L2.78428 2.79818L2.80316 2.81706L2.3904 2.39714C3.95308 0.859936 6.05776 -0.00093352 8.24978 7.59668e-07L8.24913 1.5C6.45089 1.49924 4.72444 2.20574 3.44249 3.4668C2.26141 4.63347 1.69328 5.88103 1.5421 7.13932C1.3894 8.41042 1.65617 9.74687 2.23676 11.0794C3.40444 13.7594 5.78528 16.2914 8.12478 17.959L7.65082 18.6237L7.68988 18.5703L8.12478 17.959L8.12738 17.9609C8.16303 17.9865 8.20593 18 8.24978 18C8.29366 18 8.33653 17.9865 8.37217 17.9609L8.37413 17.9596C10.7138 16.291 13.0944 13.7582 14.2621 11.0781C14.8428 9.74551 15.1095 8.40908 14.9568 7.13802C14.8056 5.8795 14.2374 4.63177 13.0558 3.46484C11.7832 2.20843 10.0532 1.50006 8.24913 1.5L8.24978 7.59668e-07Z" fill="#9CA3AF"/>
<path d="M9.5 7.75C9.5 7.41848 9.36854 7.10031 9.13411 6.86589C8.89969 6.63146 8.58152 6.5 8.25 6.5C7.91848 6.5 7.60031 6.63146 7.36589 6.86589C7.13146 7.10031 7 7.41848 7 7.75C7 8.08152 7.13146 8.39969 7.36589 8.63411C7.60031 8.86854 7.91848 9 8.25 9C8.58152 9 8.89969 8.86854 9.13411 8.63411C9.36854 8.39969 9.5 8.08152 9.5 7.75ZM11 7.75C11 8.47935 10.7104 9.17894 10.1947 9.69466C9.67894 10.2104 8.97935 10.5 8.25 10.5C7.52065 10.5 6.82106 10.2104 6.30534 9.69466C5.78961 9.17894 5.5 8.47935 5.5 7.75C5.5 7.02065 5.78961 6.32106 6.30534 5.80534C6.82106 5.28961 7.52065 5 8.25 5C8.97935 5 9.67894 5.28961 10.1947 5.80534C10.7104 6.32106 11 7.02065 11 7.75Z" fill="#9CA3AF"/>
</svg>
