<svg width="21" height="21" viewBox="0 0 21 21" fill="none" xmlns="http://www.w3.org/2000/svg">
<path d="M19.6419 16.0308C18.8975 15.2808 17.0947 14.1862 16.22 13.7451C15.0809 13.1714 14.9872 13.1245 14.0919 13.7897C13.4947 14.2336 13.0977 14.6301 12.3987 14.4811C11.6998 14.332 10.1811 13.4915 8.85124 12.1659C7.5214 10.8403 6.63218 9.27748 6.48265 8.58092C6.33312 7.88436 6.73624 7.49201 7.17593 6.89342C7.79562 6.04967 7.74874 5.90904 7.21906 4.76998C6.80609 3.88404 5.67968 2.09811 4.92687 1.35748C4.12156 0.562013 4.12156 0.702638 3.60265 0.918263C3.18018 1.09597 2.77489 1.31203 2.39187 1.56373C1.64187 2.06201 1.22562 2.47592 0.934526 3.09795C0.643432 3.71998 0.512651 5.17826 2.01593 7.9092C3.51921 10.6401 4.5739 12.0365 6.75687 14.2134C8.93984 16.3903 10.6184 17.5608 13.0723 18.937C16.108 20.6372 17.2723 20.3058 17.8962 20.0151C18.5202 19.7245 18.9359 19.312 19.4352 18.562C19.6875 18.1796 19.904 17.7748 20.082 17.3526C20.2981 16.8356 20.4387 16.8356 19.6419 16.0308Z" stroke="#1E40AF" stroke-width="1.5" stroke-miterlimit="10"/>
</svg>
